<svg width="207" height="52" viewBox="0 0 207 52" fill="none" xmlns="http://www.w3.org/2000/svg">
<path d="M183.352 40.0234C184.555 40.0234 185.5 40.3229 186.188 40.9219C186.88 41.5156 187.227 42.3307 187.227 43.3672C187.227 44.5495 186.849 45.4766 186.094 46.1484C185.344 46.8203 184.307 47.1562 182.984 47.1562C181.698 47.1562 180.716 46.9505 180.039 46.5391V45.2891C180.404 45.5234 180.857 45.7083 181.398 45.8438C181.94 45.974 182.474 46.0391 183 46.0391C183.917 46.0391 184.628 45.8229 185.133 45.3906C185.643 44.9583 185.898 44.3333 185.898 43.5156C185.898 41.9219 184.922 41.125 182.969 41.125C182.474 41.125 181.812 41.2005 180.984 41.3516L180.312 40.9219L180.742 35.5781H186.422V36.7734H181.852L181.562 40.2031C182.161 40.0833 182.758 40.0234 183.352 40.0234ZM196.508 41.2734C196.508 43.2474 196.195 44.7214 195.57 45.6953C194.951 46.6693 194 47.1562 192.719 47.1562C191.49 47.1562 190.555 46.6589 189.914 45.6641C189.273 44.6641 188.953 43.2005 188.953 41.2734C188.953 39.2839 189.263 37.8073 189.883 36.8438C190.503 35.8802 191.448 35.3984 192.719 35.3984C193.958 35.3984 194.898 35.901 195.539 36.9062C196.185 37.9115 196.508 39.3672 196.508 41.2734ZM190.266 41.2734C190.266 42.9349 190.461 44.1458 190.852 44.9062C191.242 45.6615 191.865 46.0391 192.719 46.0391C193.583 46.0391 194.208 45.6562 194.594 44.8906C194.984 44.1198 195.18 42.9141 195.18 41.2734C195.18 39.6328 194.984 38.4323 194.594 37.6719C194.208 36.9062 193.583 36.5234 192.719 36.5234C191.865 36.5234 191.242 36.901 190.852 37.6562C190.461 38.4062 190.266 39.612 190.266 41.2734ZM205.664 41.2734C205.664 43.2474 205.352 44.7214 204.727 45.6953C204.107 46.6693 203.156 47.1562 201.875 47.1562C200.646 47.1562 199.711 46.6589 199.07 45.6641C198.43 44.6641 198.109 43.2005 198.109 41.2734C198.109 39.2839 198.419 37.8073 199.039 36.8438C199.659 35.8802 200.604 35.3984 201.875 35.3984C203.115 35.3984 204.055 35.901 204.695 36.9062C205.341 37.9115 205.664 39.3672 205.664 41.2734ZM199.422 41.2734C199.422 42.9349 199.617 44.1458 200.008 44.9062C200.398 45.6615 201.021 46.0391 201.875 46.0391C202.74 46.0391 203.365 45.6562 203.75 44.8906C204.141 44.1198 204.336 42.9141 204.336 41.2734C204.336 39.6328 204.141 38.4323 203.75 37.6719C203.365 36.9062 202.74 36.5234 201.875 36.5234C201.021 36.5234 200.398 36.901 200.008 37.6562C199.617 38.4062 199.422 39.612 199.422 41.2734Z" fill="#1E0606"/>
<path d="M8.35156 41.2734C8.35156 43.2474 8.03906 44.7214 7.41406 45.6953C6.79427 46.6693 5.84375 47.1562 4.5625 47.1562C3.33333 47.1562 2.39844 46.6589 1.75781 45.6641C1.11719 44.6641 0.796875 43.2005 0.796875 41.2734C0.796875 39.2839 1.10677 37.8073 1.72656 36.8438C2.34635 35.8802 3.29167 35.3984 4.5625 35.3984C5.80208 35.3984 6.74219 35.901 7.38281 36.9062C8.02865 37.9115 8.35156 39.3672 8.35156 41.2734ZM2.10938 41.2734C2.10938 42.9349 2.30469 44.1458 2.69531 44.9062C3.08594 45.6615 3.70833 46.0391 4.5625 46.0391C5.42708 46.0391 6.05208 45.6562 6.4375 44.8906C6.82812 44.1198 7.02344 42.9141 7.02344 41.2734C7.02344 39.6328 6.82812 38.4323 6.4375 37.6719C6.05208 36.9062 5.42708 36.5234 4.5625 36.5234C3.70833 36.5234 3.08594 36.901 2.69531 37.6562C2.30469 38.4062 2.10938 39.612 2.10938 41.2734Z" fill="#1E0606"/>
<rect opacity="0.5" x="5" y="10" width="188" height="4" fill="black"/>
<rect x="5" y="10" width="46" height="4" fill="#C29974"/>
<circle cx="51" cy="12" r="12" fill="#C29974"/>
<circle cx="51" cy="12" r="3.65217" fill="white"/>
</svg>
