<svg width="73" height="107" viewBox="0 0 73 107" fill="none" xmlns="http://www.w3.org/2000/svg">
<path d="M2.66723 83.6148C5.3281 79.2649 8.95654 76.365 12.8269 72.4984C13.0688 72.2567 13.5526 71.7734 13.7945 71.5318C19.1162 65.9735 30.4853 55.0988 30.4853 55.0988C30.4853 55.0988 53.4655 16.433 62.4157 0L72.8173 18.1246C65.8023 32.8659 54.4331 60.8986 49.8371 66.9402C41.3707 78.0566 31.4529 88.9314 22.2609 100.289C19.6 103.431 15.2459 106.089 11.1336 106.814C9.92413 107.056 8.95654 107.056 7.98895 106.814C4.3605 106.089 1.94155 103.189 0.973962 99.3228C-0.719314 94.2479 -0.235529 88.448 2.66723 83.6148Z" fill="#EA4A49"/>
</svg>
