<svg width="26" height="32" viewBox="0 0 26 32" fill="none" xmlns="http://www.w3.org/2000/svg">
<path d="M7.21188 31.7192L10.5985 28.3359C11.3242 27.611 12.0499 26.6443 12.5337 25.436L13.7431 22.5361C13.985 22.2944 13.985 21.8111 14.2269 21.5694L19.0649 16.7362C19.7906 16.0112 19.7906 14.8029 18.823 13.8363C17.8554 13.1113 16.6459 12.8696 15.9202 13.5946L12.7755 16.9778L13.985 12.3863L18.0973 6.8281L24.6285 3.92817C25.5961 3.44485 25.838 2.23653 25.3542 1.26989C24.6285 0.303244 23.419 -0.180078 22.4514 0.0615834L14.7107 3.6865C14.7107 3.6865 10.5985 7.55309 9.38898 8.76139C9.14708 9.00305 8.90518 9.48636 8.66328 9.72802C7.4538 11.4196 4.55104 16.0112 3.34155 20.6028L0.680664 26.161L7.21188 31.7192Z" fill="#FFAE80"/>
</svg>
