<svg width="18" height="13" viewBox="0 0 18 13" fill="none" xmlns="http://www.w3.org/2000/svg">
<path d="M3.74165 11.6276L4.95113 10.4194L7.12818 8.96938L12.6918 8.48607C13.4175 8.48607 14.1431 8.00275 14.1431 7.27777L16.0783 7.0361C17.0459 7.0361 17.7716 6.06945 17.5297 5.10281C17.5297 4.86115 17.2878 4.61952 17.2878 4.37786C17.7716 3.89454 17.7716 3.16956 17.5297 2.44458C17.0459 1.23628 15.8364 0.511308 14.8688 0.752968L7.12818 2.92789C6.88628 2.92789 6.88627 2.92789 6.88627 2.92789C6.88627 2.92789 6.88629 2.92789 6.64439 2.92789C6.64439 2.92789 6.64438 2.92789 6.40248 2.92789C6.40248 2.92789 6.40251 2.9279 6.16061 3.16956L0.597 8.24439C-0.128687 8.96937 -0.128687 10.1777 0.597 11.1443C1.56458 12.1109 3.01597 12.3526 3.74165 11.6276Z" fill="#FFAE80"/>
</svg>
