<svg width="39" height="11" viewBox="0 0 39 11" fill="none" xmlns="http://www.w3.org/2000/svg">
<path d="M4.79688 10L1.40625 1.14062H1.35156C1.41536 1.84245 1.44727 2.67643 1.44727 3.64258V10H0.374023V0.00585938H2.12402L5.28906 8.25H5.34375L8.53613 0.00585938H10.2725V10H9.11035V3.56055C9.11035 2.82227 9.14225 2.02018 9.20605 1.1543H9.15137L5.7334 10H4.79688ZM18.5918 10H13.0205V0.00585938H18.5918V1.03809H14.1826V4.25781H18.3252V5.2832H14.1826V8.96094H18.5918V10ZM28.6201 10H27.2939L21.832 1.6123H21.7773C21.8503 2.59668 21.8867 3.49902 21.8867 4.31934V10H20.8135V0.00585938H22.126L27.5742 8.35938H27.6289C27.6198 8.23633 27.5993 7.84212 27.5674 7.17676C27.5355 6.50684 27.5241 6.02832 27.5332 5.74121V0.00585938H28.6201V10ZM38.915 0.00585938V6.47266C38.915 7.61198 38.571 8.50749 37.8828 9.15918C37.1947 9.81087 36.249 10.1367 35.0459 10.1367C33.8428 10.1367 32.9108 9.80859 32.25 9.15234C31.5938 8.49609 31.2656 7.59375 31.2656 6.44531V0.00585938H32.4277V6.52734C32.4277 7.36133 32.6556 8.00163 33.1113 8.44824C33.5671 8.89486 34.237 9.11816 35.1211 9.11816C35.9642 9.11816 36.6136 8.89486 37.0693 8.44824C37.5251 7.99707 37.7529 7.35221 37.7529 6.51367V0.00585938H38.915Z" fill="#1E0606"/>
</svg>
