<svg width="887" height="322" viewBox="0 0 887 322" fill="none" xmlns="http://www.w3.org/2000/svg">
<path d="M345.248 156.762L330.492 159.662C320.332 153.862 326.138 157.245 318.881 152.895L296.385 161.353L313.801 190.836H364.841L360.487 179.961L351.537 179.72L348.393 176.095L349.36 163.045L345.248 156.762Z" fill="black"/>
<path d="M427.494 137.912L428.22 145.404L428.946 153.862L429.429 159.178C434.993 165.22 442.008 154.829 446.362 150.962L446.846 136.704L427.494 137.912Z" fill="#FFAE80"/>
<path opacity="0.4" d="M428.217 145.404L428.942 153.862C434.264 151.687 437.893 147.579 439.102 143.229L428.217 145.404Z" fill="#FFAE80"/>
<path d="M453.133 128.005C452.166 131.63 448.537 135.255 447.57 137.913C446.844 140.33 435.475 145.646 431.605 147.096C428.218 148.304 423.622 147.821 421.929 145.163C420.477 142.988 420.719 140.813 422.171 132.838H420.477C419.51 132.355 419.026 131.146 419.752 130.18L420.961 128.005L422.413 125.83L422.896 125.105C422.896 125.105 422.654 124.138 422.413 122.93C422.413 122.688 422.413 122.447 422.654 122.447C422.896 121.48 423.138 120.755 423.38 119.788C424.106 117.855 425.073 116.163 426.041 114.955C429.428 110.364 434.507 108.914 439.587 109.639C445.393 110.605 455.552 111.572 453.133 128.005Z" fill="#FFAE80"/>
<path opacity="0.4" d="M439.345 121.721L438.861 124.138L420.961 128.246L422.412 126.071L422.896 125.346C422.896 125.346 422.654 124.38 422.412 123.171C422.412 122.93 422.412 122.688 422.654 122.688L439.345 121.721Z" fill="#FFAE80"/>
<path d="M446.603 141.538C435.234 142.021 443.7 130.421 443.7 130.421C443.7 130.421 442.974 127.521 441.765 128.488C440.072 128.246 439.588 127.522 437.895 127.038C439.83 119.063 442.974 110.847 429.67 111.33C430.154 108.43 434.992 106.98 441.039 107.947C449.264 109.155 455.553 115.197 454.827 123.655C454.586 128.246 454.585 131.146 446.603 141.538Z" fill="#2F2E29"/>
<path d="M452.408 183.345C450.957 192.045 451.199 199.053 450.957 205.578H413.221C413.221 204.853 413.221 204.128 413.221 203.645C413.221 200.503 413.463 197.603 413.463 195.186C413.463 194.945 413.463 194.461 413.463 194.22C413.463 192.77 413.463 191.32 413.705 190.353C413.705 188.662 413.946 187.695 413.946 187.695C413.946 187.453 413.946 187.212 413.946 186.728C414.43 182.862 415.398 178.995 416.607 175.612C420.961 162.32 428.944 153.862 428.944 153.862C428.944 153.862 445.877 148.062 446.361 148.546C454.101 153.621 455.311 161.112 455.069 163.77C454.585 172.229 453.376 177.062 452.408 183.345Z" fill="#5E4A4C"/>
<path d="M445.391 131.871C444.907 134.53 442.246 136.946 440.553 136.704C438.86 136.463 439.343 134.288 439.827 131.871C440.069 130.18 440.069 127.763 442.004 127.521C443.697 127.28 445.874 128.246 445.391 131.871Z" fill="#FFAE80"/>
<path opacity="0.5" d="M436.443 190.353L431.121 205.819H413.221C413.221 205.094 413.221 204.369 413.221 203.886C413.221 200.744 413.463 197.844 413.463 195.428C413.463 195.186 413.463 194.703 413.463 194.461C413.463 193.011 413.463 191.561 413.705 190.594C413.705 188.903 413.946 187.936 413.946 187.936C413.946 187.695 413.946 187.453 413.946 186.97C414.43 183.103 415.398 179.236 416.607 175.853L424.106 165.945L441.523 175.611L439.104 182.62L436.443 190.353Z" fill="#5589B9"/>
<path d="M439.348 178.753L405.724 197.119L393.871 181.17L428.946 160.87C433.542 158.212 442.976 156.037 446.363 162.079C446.363 162.32 451.926 172.228 439.348 178.753Z" fill="#5E4A4C"/>
<path d="M416.848 196.394L416.365 196.878C416.123 197.119 416.123 197.119 415.881 197.119C415.397 197.361 414.671 197.844 414.188 198.086C410.559 199.536 406.447 199.053 403.06 196.878L401.367 195.911L377.903 183.345L368.711 178.995L370.162 166.67L385.644 171.745L406.931 178.511L410.075 179.478L412.978 180.445C415.639 181.17 417.816 183.103 419.025 185.278C419.993 187.211 420.477 189.628 419.751 192.045C419.026 193.978 418.058 195.428 416.848 196.394Z" fill="#5E4A4C"/>
<path d="M446.119 194.461H481.194L491.112 142.746H473.211C463.294 142.746 454.585 149.754 452.892 159.662L446.119 194.461Z" fill="black"/>
<path d="M365.568 168.846L360.246 160.146L351.296 156.762L356.134 163.771L351.054 165.704L347.184 159.662L347.425 172.229L354.441 178.27L364.358 179.962L365.568 168.846Z" fill="#FFAE80"/>
<path d="M360.487 170.537L356.133 173.437L339.926 148.787C339.2 147.579 339.442 145.887 340.651 145.163C341.861 144.438 343.554 144.679 344.28 145.887L360.487 170.537Z" fill="black"/>
<path d="M416.123 122.446C416.849 122.93 454.826 120.996 454.826 120.996C454.826 120.996 456.278 111.572 452.649 109.638C436.684 99.9719 418.784 115.922 417.332 117.855C415.639 120.03 419.51 120.271 419.51 120.271C419.51 120.271 415.397 122.205 416.123 122.446Z" fill="black"/>
<path d="M483.613 55.5063H493.772C495.708 55.5063 497.401 56.9563 497.643 58.8896L501.997 92.7221H475.146L479.501 58.8896C479.984 56.9563 481.678 55.5063 483.613 55.5063Z" fill="#F9B233"/>
<path d="M872.824 228.777L871.131 229.019C869.438 229.26 867.986 226.602 867.502 222.977L865.325 201.953C864.842 198.086 866.051 194.703 867.986 194.461H869.196C870.889 194.461 872.341 196.878 872.824 200.261L875.485 221.044C875.969 224.911 874.76 228.535 872.824 228.777Z" fill="#E94E1B"/>
<path d="M16.0267 235.302L9.97929 234.819C6.10894 234.577 2.96427 231.194 2.72238 227.086L0.0614916 198.086C-0.422303 193.978 1.99668 190.111 5.62513 189.386L9.4955 188.42L16.0267 235.302Z" fill="#FFC55E"/>
<path d="M18.4459 236.752L9.7377 236.027L4.41602 186.97L15.3013 186.728L18.4459 236.752Z" fill="black"/>
<path d="M17.2367 265.51L7.56079 265.751C5.14181 265.751 2.96472 264.06 2.48093 261.643L0.0619526 245.693C-0.421842 242.794 1.99713 240.135 4.8999 240.135H17.9624L20.8651 261.16C21.3489 263.335 19.6557 265.51 17.2367 265.51Z" fill="#DAD1D1"/>
<path d="M872.099 232.644L868.229 196.878C867.503 189.387 861.698 183.104 854.199 181.654L698.66 149.271C693.58 148.304 688.742 145.646 684.872 142.021L653.909 111.814C639.395 97.5555 619.801 89.5807 599.24 89.5807H389.274C383.227 89.5807 377.421 91.514 372.583 95.3805L301.224 150.238C293.967 155.796 285.5 158.937 276.308 159.421L33.2024 171.504C18.4467 172.229 7.56135 174.887 9.49652 189.628L15.5439 247.386C16.9953 258.985 26.1874 268.168 37.7984 269.618L91.7413 276.627H732.283L743.894 275.902L748.732 275.66L841.62 269.135C860.246 267.443 874.035 251.01 872.099 232.644ZM472.003 160.871H313.56L382.259 107.947C384.194 106.497 386.613 105.53 389.274 105.53H475.873L472.003 160.871Z" fill="#F9B233"/>
<path opacity="0.75" d="M261.309 167.396L33.4425 178.754C28.3627 178.995 14.3327 179.479 16.2678 191.078L22.3153 246.419C18.4449 183.104 25.9437 186.729 52.7942 184.795L261.309 167.396Z" fill="#F6F6F6"/>
<path opacity="0.75" d="M864.842 233.369L860.972 197.603C860.488 193.012 857.101 189.387 852.747 188.42L698.417 154.829C697.934 154.829 695.515 156.038 695.515 156.038C845.732 191.078 852.747 188.42 864.842 233.369Z" fill="#F6F6F6"/>
<path d="M478.292 198.086L478.534 194.22L485.307 96.8303H389.032C384.678 96.8303 380.082 98.2803 376.696 100.939L305.336 155.796C302.191 158.212 299.047 160.146 295.66 161.837L287.678 193.978L285.984 200.503L291.548 240.377L295.66 269.135H485.549L482.646 240.377L478.292 198.086ZM472.003 160.871H313.561L382.259 107.947C384.194 106.497 386.613 105.53 389.274 105.53H475.873L472.003 160.871Z" fill="white"/>
<path d="M389.274 103.838C386.371 103.838 383.468 104.805 381.291 106.496L309.932 161.354C309.448 161.837 308.964 162.079 308.238 162.562H473.696L477.808 103.838H389.274V103.838ZM472.002 160.87H313.56L382.259 107.946C384.194 106.496 386.613 105.53 389.274 105.53H475.873L472.002 160.87Z" fill="#F9B233"/>
<path d="M485.547 198.086L489.901 240.619L492.804 269.376H605.044C606.011 258.985 609.156 249.319 613.994 240.619C623.186 223.461 638.909 210.411 658.261 204.611V194.22L658.503 170.537C658.503 164.737 656.81 159.179 653.423 154.587L620.041 107.705C615.203 101.18 607.705 96.8303 599.48 96.8303H492.562L485.789 194.22L485.547 198.086Z" fill="white"/>
<path d="M613.996 111.813C610.367 106.98 605.045 104.08 599.24 103.838H499.095L494.982 162.803L649.554 162.562L613.996 111.813Z" fill="#1D1715"/>
<path d="M468.858 172.954H437.17V183.104H468.858V172.954Z" fill="black"/>
<path d="M649.796 172.954H618.107V183.104H649.796V172.954Z" fill="black"/>
<path d="M871.858 232.402L872.342 236.994H852.99C843.072 236.994 835.09 244.969 835.09 254.877V255.118L877.18 253.185C882.018 252.943 886.372 249.318 885.888 244.485C885.888 243.519 885.646 242.552 885.646 241.585C885.162 236.51 880.808 232.644 875.728 232.644H871.858V232.402Z" fill="#DAD1D1"/>
<path d="M35.1391 261.16H9.73994C7.56287 261.16 5.62771 259.711 5.14391 257.536L3.69252 250.527C2.96683 247.627 5.38582 244.728 8.28858 244.728H33.6877C35.8648 244.728 37.8 246.178 38.2838 248.352L39.7352 255.361C40.4608 258.261 38.2837 261.16 35.1391 261.16Z" fill="#DAD1D1"/>
<path d="M233.735 276.385H106.014L109.642 256.327C110.852 249.802 113.512 244.002 117.141 238.927C120.769 234.094 125.365 230.227 130.687 227.569C136.251 224.669 142.54 222.977 149.313 222.977H187.775C196.483 222.977 204.466 225.636 211.239 229.986C213.416 231.435 215.351 232.885 217.044 234.577C223.817 240.86 228.655 249.318 230.59 258.985L233.735 276.385Z" fill="black"/>
<path d="M748.732 275.177L743.894 275.418L739.057 275.66L732.041 276.143H621.253L624.156 259.469L624.881 256.085C627.058 243.519 635.041 233.127 645.684 227.569C650.522 224.911 656.086 223.219 661.892 222.978C662.617 222.978 663.585 222.978 664.31 222.978H702.772C711.238 222.978 719.221 225.394 725.994 229.744C736.154 236.027 743.411 246.419 745.588 258.985L748.732 275.177Z" fill="black"/>
<g opacity="0.75">
<path opacity="0.75" d="M561.505 106.497L519.898 161.112H552.796L594.645 106.497H561.505Z" fill="white"/>
<path opacity="0.75" d="M546.505 106.497L505.383 161.112H515.784L557.149 106.497H546.505Z" fill="white"/>
</g>
<path d="M204.947 265.993C204.947 285.326 189.224 301.034 169.872 301.034C150.52 301.034 134.797 285.326 134.797 265.993C134.797 246.66 150.52 230.952 169.872 230.952C189.224 231.194 204.947 246.66 204.947 265.993Z" fill="#DAD1D1"/>
<path d="M211.236 229.986C204.463 225.636 196.238 222.977 187.772 222.977H149.31C142.537 222.977 136.248 224.669 130.684 227.569C121.008 237.477 114.961 251.01 114.961 265.993C114.961 269.618 115.203 273.001 115.929 276.384C120.766 301.759 143.021 320.85 169.871 321.092C196.722 321.092 218.976 302.001 223.814 276.384C224.54 273.001 224.782 269.618 224.782 266.235C224.782 252.46 219.702 239.652 211.236 229.986ZM137.699 276.384C136.732 273.001 136.006 269.618 136.006 265.993C136.006 247.385 151.245 232.16 169.871 232.16C188.497 232.16 203.737 247.385 203.737 265.993C203.737 269.618 203.253 273.001 202.044 276.143C197.689 289.676 184.869 299.584 169.871 299.584C154.632 299.826 142.053 289.918 137.699 276.384Z" fill="black"/>
<path d="M195.513 265.993C195.513 280.009 184.143 291.609 169.872 291.609C155.842 291.609 144.23 280.251 144.23 265.993C144.23 251.976 155.6 240.377 169.872 240.377C183.902 240.618 195.513 251.976 195.513 265.993Z" fill="white"/>
<path d="M185.353 265.993C185.353 274.451 178.338 281.46 169.872 281.46C161.406 281.46 154.391 274.451 154.391 265.993C154.391 257.535 161.164 250.527 169.872 250.527C178.338 250.769 185.353 257.535 185.353 265.993Z" fill="#DAD1D1"/>
<path opacity="0.5" d="M156.566 238.444C151.245 241.102 146.649 245.21 143.504 250.285L169.871 265.993L156.566 238.444Z" fill="white"/>
<path opacity="0.5" d="M169.871 265.993L183.417 294.026C188.739 291.368 193.335 287.259 196.48 281.943L169.871 265.993Z" fill="white"/>
<path d="M720.189 265.993C720.189 285.326 704.466 301.034 685.114 301.034C665.762 301.034 650.039 285.326 650.039 265.993C650.039 246.66 665.762 230.952 685.114 230.952C704.466 231.194 720.189 246.66 720.189 265.993Z" fill="#DAD1D1"/>
<path d="M726.236 229.986C719.463 225.636 711.48 223.219 703.014 223.219H664.552C657.779 223.219 651.49 224.911 645.684 227.811C636.009 237.719 630.203 251.252 630.203 265.993C630.203 269.618 630.445 273.001 631.171 276.385C636.009 301.759 658.263 320.85 685.114 321.092C712.206 321.092 734.46 301.759 739.298 275.901C739.782 272.76 740.266 269.377 740.266 266.235C740.024 252.219 734.944 239.652 726.236 229.986ZM652.941 276.385C651.974 273.001 651.248 269.618 651.248 265.993C651.248 247.385 666.488 232.161 685.114 232.161C703.74 232.161 718.979 247.385 718.979 265.993C718.979 269.618 718.495 273.001 717.286 276.143C712.932 289.676 700.111 299.584 685.114 299.584C669.874 299.826 657.295 289.918 652.941 276.385Z" fill="black"/>
<path d="M710.513 265.993C710.513 280.01 699.144 291.609 684.872 291.609C670.842 291.609 659.231 280.251 659.231 265.993C659.231 251.977 670.6 240.377 684.872 240.377C699.144 240.619 710.513 251.977 710.513 265.993Z" fill="white"/>
<path d="M700.354 265.993C700.354 274.451 693.339 281.46 684.873 281.46C676.407 281.46 669.392 274.451 669.392 265.993C669.392 257.535 676.407 250.527 684.873 250.527C693.581 250.769 700.354 257.535 700.354 265.993Z" fill="#DAD1D1"/>
<path opacity="0.5" d="M671.808 238.444C666.486 241.102 661.89 245.211 658.745 250.286L685.112 265.994L671.808 238.444Z" fill="white"/>
<path opacity="0.5" d="M685.113 265.993L698.659 294.026C703.981 291.368 708.577 287.26 711.722 281.943L685.113 265.993Z" fill="white"/>
<path d="M485.791 193.978L485.549 197.845L489.903 240.377H613.754C622.946 223.219 638.669 210.17 658.021 204.37V193.978H485.791V193.978Z" fill="white"/>
<path d="M294.449 200.503L300.013 240.619H475.388L471.034 198.087L471.276 193.979H296.143L294.449 200.503Z" fill="#F9B233"/>
<path d="M424.591 201.953H407.658V218.87H424.591V201.953Z" fill="black"/>
<path d="M407.657 218.87H390.725V235.786H407.657V218.87Z" fill="black"/>
<path d="M390.968 201.953H374.035V218.87H390.968V201.953Z" fill="black"/>
<path d="M374.032 218.87H357.1V235.786H374.032V218.87Z" fill="black"/>
<path d="M357.103 201.953H340.17V218.869H357.103V201.953Z" fill="black"/>
<path opacity="0.3" d="M117.138 238.927C113.268 243.76 110.607 249.801 109.64 256.326L106.011 276.384H91.4973L37.5545 269.376C31.2652 268.651 25.7016 265.509 21.5893 260.918H21.1055C21.3474 263.334 19.6542 265.268 17.2352 265.509L7.55934 265.751C5.14038 265.751 2.9633 264.059 2.47951 261.643L0.0605469 245.693C0.0605469 245.21 0.0605469 244.726 0.0605469 244.243L117.138 238.927Z" fill="#F9B233"/>
<path opacity="0.3" d="M661.891 223.219C656.085 223.461 650.522 225.153 645.684 227.811C635.04 233.369 627.058 243.761 624.881 256.327L621.252 276.385H233.734L230.589 258.985C228.896 249.319 224.058 240.861 217.043 234.577L661.649 215.245L661.891 223.219Z" fill="#F9B233"/>
<path opacity="0.3" d="M885.886 244.485C886.128 249.319 881.774 252.944 877.178 253.185L867.26 253.669C861.939 262.127 852.746 268.168 841.861 268.893L748.973 275.418L746.07 259.227C743.893 246.902 736.636 236.511 726.476 229.986C719.703 225.636 711.721 223.219 703.254 223.219H664.793C663.825 223.219 663.099 223.219 662.374 223.219L662.132 215.244L873.791 206.061L875.727 220.803C876.21 224.911 875.001 228.536 873.308 228.777H872.098L872.582 232.402H876.21C881.29 232.402 885.644 236.269 886.128 241.344C885.644 242.31 885.886 243.519 885.886 244.485Z" fill="#F9B233"/>
<path d="M473.696 164.737H308.239C307.514 164.737 306.788 164.254 306.788 163.529C306.546 162.804 306.788 162.079 307.514 161.596L308.239 161.112C308.481 160.871 308.965 160.629 309.207 160.387L380.566 105.53C383.227 103.597 386.372 102.388 389.517 102.388H478.051C478.534 102.388 479.018 102.63 479.26 102.872C479.502 103.113 479.744 103.597 479.744 104.08L475.632 162.804C475.148 164.254 474.422 164.737 473.696 164.737ZM313.077 161.596H472.003L475.874 106.013H389.033C386.372 106.013 383.953 106.98 382.018 108.43L313.077 161.596Z" fill="#F9B233"/>
<path d="M332.669 139.846L331.459 140.088C327.589 140.571 324.444 143.471 323.477 147.096L322.025 152.654L312.35 161.595L313.317 164.012L323.235 164.979C325.654 168.604 330.008 170.778 334.604 170.053L336.297 169.812L332.669 139.846Z" fill="#F9B233"/>
<g filter="url(#filter0_d_1980_853)">
<path d="M463.405 0.506348H333.405C325.158 0.506348 318.458 7.16438 318.406 15.4114L318.096 64.4114C318.043 72.7326 324.774 79.5063 333.095 79.5063H419L439 99.5063L459 79.5063H463.095C471.342 79.5063 478.042 72.8483 478.094 64.6013L478.404 15.6013C478.457 7.28008 471.726 0.506348 463.405 0.506348Z" fill="white"/>
<path d="M339.961 29.7407L336.969 34.5063H335.398L338.602 29.5142C337.763 29.2485 337.154 28.8475 336.773 28.311C336.393 27.7694 336.203 27.0871 336.203 26.2642C336.203 25.2433 336.555 24.4595 337.258 23.9126C337.966 23.3605 339.036 23.0845 340.469 23.0845H343.609V34.5063H342.281V29.7407H339.961ZM342.281 24.2329H340.508C339.555 24.2329 338.831 24.397 338.336 24.7251C337.841 25.0532 337.594 25.5871 337.594 26.3267C337.594 27.8423 338.581 28.6001 340.555 28.6001H342.281V24.2329ZM357.664 28.0923C357.664 28.6496 357.503 29.0741 357.18 29.3657C356.862 29.6522 356.414 29.8449 355.836 29.9438V30.0142C356.565 30.1131 357.096 30.3267 357.43 30.6548C357.768 30.9829 357.938 31.436 357.938 32.0142C357.938 32.811 357.643 33.4256 357.055 33.8579C356.471 34.2902 355.617 34.5063 354.492 34.5063H350.719V25.9438H354.477C356.602 25.9438 357.664 26.66 357.664 28.0923ZM356.641 31.9282C356.641 31.4647 356.464 31.1287 356.109 30.9204C355.76 30.7069 355.18 30.6001 354.367 30.6001H352.016V33.4204H354.398C355.893 33.4204 356.641 32.923 356.641 31.9282ZM356.398 28.2173C356.398 27.8006 356.237 27.5063 355.914 27.3345C355.596 27.1574 355.112 27.0688 354.461 27.0688H352.016V29.4829H354.211C355.013 29.4829 355.578 29.384 355.906 29.186C356.234 28.9881 356.398 28.6652 356.398 28.2173ZM367.219 30.2173C367.219 31.6131 366.867 32.7043 366.164 33.4907C365.461 34.272 364.49 34.6626 363.25 34.6626C362.484 34.6626 361.805 34.4829 361.211 34.1235C360.617 33.7642 360.159 33.2485 359.836 32.5767C359.513 31.9048 359.352 31.1183 359.352 30.2173C359.352 28.8215 359.701 27.7355 360.398 26.9595C361.096 26.1782 362.065 25.7876 363.305 25.7876C364.503 25.7876 365.453 26.186 366.156 26.9829C366.865 27.7798 367.219 28.8579 367.219 30.2173ZM360.695 30.2173C360.695 31.311 360.914 32.1444 361.352 32.7173C361.789 33.2902 362.432 33.5767 363.281 33.5767C364.13 33.5767 364.773 33.2928 365.211 32.7251C365.654 32.1522 365.875 31.3162 365.875 30.2173C365.875 29.1287 365.654 28.3032 365.211 27.7407C364.773 27.173 364.125 26.8892 363.266 26.8892C362.417 26.8892 361.776 27.1678 361.344 27.7251C360.911 28.2824 360.695 29.1131 360.695 30.2173ZM376.891 30.2173C376.891 31.6131 376.539 32.7043 375.836 33.4907C375.133 34.272 374.161 34.6626 372.922 34.6626C372.156 34.6626 371.477 34.4829 370.883 34.1235C370.289 33.7642 369.831 33.2485 369.508 32.5767C369.185 31.9048 369.023 31.1183 369.023 30.2173C369.023 28.8215 369.372 27.7355 370.07 26.9595C370.768 26.1782 371.737 25.7876 372.977 25.7876C374.174 25.7876 375.125 26.186 375.828 26.9829C376.536 27.7798 376.891 28.8579 376.891 30.2173ZM370.367 30.2173C370.367 31.311 370.586 32.1444 371.023 32.7173C371.461 33.2902 372.104 33.5767 372.953 33.5767C373.802 33.5767 374.445 33.2928 374.883 32.7251C375.326 32.1522 375.547 31.3162 375.547 30.2173C375.547 29.1287 375.326 28.3032 374.883 27.7407C374.445 27.173 373.797 26.8892 372.938 26.8892C372.089 26.8892 371.448 27.1678 371.016 27.7251C370.583 28.2824 370.367 29.1131 370.367 30.2173ZM378.727 29.3735C378.727 27.4985 379.003 26.0376 379.555 24.9907C380.107 23.9386 380.982 23.2824 382.18 23.022C383.669 22.7043 384.982 22.4465 386.117 22.2485L386.359 23.3892C384.552 23.6912 383.26 23.9308 382.484 24.1079C381.729 24.2798 381.161 24.686 380.781 25.3267C380.406 25.9673 380.201 26.8397 380.164 27.9438H380.258C380.581 27.5063 380.997 27.1626 381.508 26.9126C382.018 26.6626 382.552 26.5376 383.109 26.5376C384.161 26.5376 384.982 26.8787 385.57 27.561C386.159 28.2433 386.453 29.1886 386.453 30.397C386.453 31.7355 386.112 32.7824 385.43 33.5376C384.747 34.2876 383.797 34.6626 382.578 34.6626C381.375 34.6626 380.432 34.2017 379.75 33.2798C379.068 32.3579 378.727 31.0558 378.727 29.3735ZM382.695 33.5767C384.284 33.5767 385.078 32.5636 385.078 30.5376C385.078 28.6053 384.357 27.6392 382.914 27.6392C382.518 27.6392 382.135 27.7225 381.766 27.8892C381.401 28.0506 381.065 28.2668 380.758 28.5376C380.456 28.8084 380.221 29.0871 380.055 29.3735C380.055 30.7433 380.271 31.7876 380.703 32.5063C381.135 33.2199 381.799 33.5767 382.695 33.5767ZM395.102 33.3892H398.898V25.9595H400.195V33.3892H401.422V37.4517H400.109V34.5063H388.719V25.9595H390.016V33.3892H393.805V25.9595H395.102V33.3892ZM406.695 34.6626C405.43 34.6626 404.43 34.2772 403.695 33.5063C402.966 32.7355 402.602 31.6652 402.602 30.2954C402.602 28.9152 402.94 27.8188 403.617 27.0063C404.299 26.1938 405.214 25.7876 406.359 25.7876C407.432 25.7876 408.281 26.1418 408.906 26.8501C409.531 27.5532 409.844 28.4829 409.844 29.6392V30.4595H403.945C403.971 31.4647 404.224 32.2277 404.703 32.7485C405.188 33.2694 405.867 33.5298 406.742 33.5298C407.664 33.5298 408.576 33.3371 409.477 32.9517V34.1079C409.018 34.3058 408.583 34.4465 408.172 34.5298C407.766 34.6183 407.273 34.6626 406.695 34.6626ZM406.344 26.8735C405.656 26.8735 405.107 27.0975 404.695 27.5454C404.289 27.9933 404.049 28.6131 403.977 29.4048H408.453C408.453 28.5871 408.271 27.9621 407.906 27.5298C407.542 27.0923 407.021 26.8735 406.344 26.8735ZM411.344 30.811V29.6235H415.18V30.811H411.344ZM422.992 27.0532H420.211V34.5063H418.914V27.0532H416.164V25.9438H422.992V27.0532ZM432.078 30.2173C432.078 31.6131 431.727 32.7043 431.023 33.4907C430.32 34.272 429.349 34.6626 428.109 34.6626C427.344 34.6626 426.664 34.4829 426.07 34.1235C425.477 33.7642 425.018 33.2485 424.695 32.5767C424.372 31.9048 424.211 31.1183 424.211 30.2173C424.211 28.8215 424.56 27.7355 425.258 26.9595C425.956 26.1782 426.924 25.7876 428.164 25.7876C429.362 25.7876 430.312 26.186 431.016 26.9829C431.724 27.7798 432.078 28.8579 432.078 30.2173ZM425.555 30.2173C425.555 31.311 425.773 32.1444 426.211 32.7173C426.648 33.2902 427.292 33.5767 428.141 33.5767C428.99 33.5767 429.633 33.2928 430.07 32.7251C430.513 32.1522 430.734 31.3162 430.734 30.2173C430.734 29.1287 430.513 28.3032 430.07 27.7407C429.633 27.173 428.984 26.8892 428.125 26.8892C427.276 26.8892 426.635 27.1678 426.203 27.7251C425.771 28.2824 425.555 29.1131 425.555 30.2173ZM439.812 25.9438V29.5298H444.609V25.9438H445.906V34.5063H444.609V30.647H439.812V34.5063H438.516V25.9438H439.812ZM452.273 34.6626C451.008 34.6626 450.008 34.2772 449.273 33.5063C448.544 32.7355 448.18 31.6652 448.18 30.2954C448.18 28.9152 448.518 27.8188 449.195 27.0063C449.878 26.1938 450.792 25.7876 451.938 25.7876C453.01 25.7876 453.859 26.1418 454.484 26.8501C455.109 27.5532 455.422 28.4829 455.422 29.6392V30.4595H449.523C449.549 31.4647 449.802 32.2277 450.281 32.7485C450.766 33.2694 451.445 33.5298 452.32 33.5298C453.242 33.5298 454.154 33.3371 455.055 32.9517V34.1079C454.596 34.3058 454.161 34.4465 453.75 34.5298C453.344 34.6183 452.852 34.6626 452.273 34.6626ZM451.922 26.8735C451.234 26.8735 450.685 27.0975 450.273 27.5454C449.867 27.9933 449.628 28.6131 449.555 29.4048H454.031C454.031 28.5871 453.849 27.9621 453.484 27.5298C453.12 27.0923 452.599 26.8735 451.922 26.8735ZM338.008 51.4985C339.628 51.4985 340.438 51.0506 340.438 50.1548C340.438 49.311 339.781 48.8892 338.469 48.8892C338.068 48.8892 337.703 48.9256 337.375 48.9985C337.047 49.0715 336.617 49.2173 336.086 49.436L335.625 48.3813C336.51 47.9855 337.477 47.7876 338.523 47.7876C339.508 47.7876 340.284 47.9907 340.852 48.397C341.419 48.798 341.703 49.3475 341.703 50.0454C341.703 51.0037 341.169 51.6313 340.102 51.9282V51.9907C340.758 52.1834 341.237 52.4595 341.539 52.8188C341.841 53.173 341.992 53.6183 341.992 54.1548C341.992 54.9465 341.672 55.5636 341.031 56.0063C340.396 56.4438 339.516 56.6626 338.391 56.6626C337.156 56.6626 336.203 56.4777 335.531 56.1079V54.9204C336.484 55.3683 337.448 55.5923 338.422 55.5923C339.172 55.5923 339.737 55.4647 340.117 55.2095C340.503 54.9491 340.695 54.5767 340.695 54.0923C340.695 53.0975 339.885 52.6001 338.266 52.6001H337.078V51.4985H338.008ZM349.375 56.5063L349.117 55.2876H349.055C348.628 55.8241 348.201 56.1886 347.773 56.3813C347.352 56.5688 346.823 56.6626 346.188 56.6626C345.339 56.6626 344.672 56.4438 344.188 56.0063C343.708 55.5688 343.469 54.9465 343.469 54.1392C343.469 52.41 344.852 51.5037 347.617 51.4204L349.07 51.3735V50.8423C349.07 50.1704 348.924 49.6756 348.633 49.3579C348.346 49.035 347.885 48.8735 347.25 48.8735C346.536 48.8735 345.729 49.0923 344.828 49.5298L344.43 48.5376C344.852 48.3084 345.312 48.1287 345.812 47.9985C346.318 47.8683 346.823 47.8032 347.328 47.8032C348.349 47.8032 349.104 48.0298 349.594 48.4829C350.089 48.936 350.336 49.6626 350.336 50.6626V56.5063H349.375ZM346.445 55.5923C347.253 55.5923 347.885 55.3709 348.344 54.9282C348.807 54.4855 349.039 53.8657 349.039 53.0688V52.2954L347.742 52.3501C346.711 52.3866 345.966 52.548 345.508 52.8345C345.055 53.1157 344.828 53.5558 344.828 54.1548C344.828 54.6235 344.969 54.9803 345.25 55.2251C345.536 55.4699 345.935 55.5923 346.445 55.5923ZM364.117 50.0923C364.117 50.6496 363.956 51.0741 363.633 51.3657C363.315 51.6522 362.867 51.8449 362.289 51.9438V52.0142C363.018 52.1131 363.549 52.3267 363.883 52.6548C364.221 52.9829 364.391 53.436 364.391 54.0142C364.391 54.811 364.096 55.4256 363.508 55.8579C362.924 56.2902 362.07 56.5063 360.945 56.5063H357.172V47.9438H360.93C363.055 47.9438 364.117 48.66 364.117 50.0923ZM363.094 53.9282C363.094 53.4647 362.917 53.1287 362.562 52.9204C362.214 52.7069 361.633 52.6001 360.82 52.6001H358.469V55.4204H360.852C362.346 55.4204 363.094 54.923 363.094 53.9282ZM362.852 50.2173C362.852 49.8006 362.69 49.5063 362.367 49.3345C362.049 49.1574 361.565 49.0688 360.914 49.0688H358.469V51.4829H360.664C361.466 51.4829 362.031 51.384 362.359 51.186C362.688 50.9881 362.852 50.6652 362.852 50.2173ZM371.547 56.5063L371.289 55.2876H371.227C370.799 55.8241 370.372 56.1886 369.945 56.3813C369.523 56.5688 368.995 56.6626 368.359 56.6626C367.51 56.6626 366.844 56.4438 366.359 56.0063C365.88 55.5688 365.641 54.9465 365.641 54.1392C365.641 52.41 367.023 51.5037 369.789 51.4204L371.242 51.3735V50.8423C371.242 50.1704 371.096 49.6756 370.805 49.3579C370.518 49.035 370.057 48.8735 369.422 48.8735C368.708 48.8735 367.901 49.0923 367 49.5298L366.602 48.5376C367.023 48.3084 367.484 48.1287 367.984 47.9985C368.49 47.8683 368.995 47.8032 369.5 47.8032C370.521 47.8032 371.276 48.0298 371.766 48.4829C372.26 48.936 372.508 49.6626 372.508 50.6626V56.5063H371.547ZM368.617 55.5923C369.424 55.5923 370.057 55.3709 370.516 54.9282C370.979 54.4855 371.211 53.8657 371.211 53.0688V52.2954L369.914 52.3501C368.883 52.3866 368.138 52.548 367.68 52.8345C367.227 53.1157 367 53.5558 367 54.1548C367 54.6235 367.141 54.9803 367.422 55.2251C367.708 55.4699 368.107 55.5923 368.617 55.5923ZM379.633 55.2563L379.875 54.5298L380.211 53.6079L382.531 47.9595H384.18V56.5063H383.031V49.436L382.875 49.8892L382.422 51.0845L380.211 56.5063H379.125L376.914 51.0688C376.638 50.3709 376.448 49.8267 376.344 49.436V56.5063H375.188V47.9595H376.773L379.016 53.3892C379.24 53.9621 379.445 54.5845 379.633 55.2563ZM388.172 47.9438V53.3735L388.117 54.7954L388.094 55.2407L392.727 47.9438H394.344V56.5063H393.133V51.272L393.156 50.2407L393.195 49.2251L388.57 56.5063H386.953V47.9438H388.172ZM398.266 53.3579H397.445L397.047 45.0845H398.664L398.266 53.3579ZM396.906 55.6782C396.906 54.9699 397.219 54.6157 397.844 54.6157C398.146 54.6157 398.378 54.7069 398.539 54.8892C398.706 55.0715 398.789 55.3345 398.789 55.6782C398.789 56.0116 398.706 56.272 398.539 56.4595C398.372 56.6418 398.141 56.7329 397.844 56.7329C397.573 56.7329 397.349 56.6522 397.172 56.4907C396.995 56.3241 396.906 56.0532 396.906 55.6782Z" fill="#1E0606"/>
</g>
<defs>
<filter id="filter0_d_1980_853" x="314.096" y="0.506348" width="168.309" height="107" filterUnits="userSpaceOnUse" color-interpolation-filters="sRGB">
<feFlood flood-opacity="0" result="BackgroundImageFix"/>
<feColorMatrix in="SourceAlpha" type="matrix" values="0 0 0 0 0 0 0 0 0 0 0 0 0 0 0 0 0 0 127 0" result="hardAlpha"/>
<feOffset dy="4"/>
<feGaussianBlur stdDeviation="2"/>
<feColorMatrix type="matrix" values="0 0 0 0 0 0 0 0 0 0 0 0 0 0 0 0 0 0 0.25 0"/>
<feBlend mode="normal" in2="BackgroundImageFix" result="effect1_dropShadow_1980_853"/>
<feBlend mode="normal" in="SourceGraphic" in2="effect1_dropShadow_1980_853" result="shape"/>
</filter>
</defs>
</svg>
