<svg width="864" height="188" viewBox="0 0 864 188" fill="none" xmlns="http://www.w3.org/2000/svg">
<path d="M863.099 143.644L859.229 107.878C858.503 100.387 852.698 94.1036 845.199 92.6536L689.66 60.271C684.58 59.3044 679.742 56.6461 675.872 53.0212L644.909 22.8135C630.395 8.5555 610.801 0.580688 590.24 0.580688H380.274C374.227 0.580688 368.421 2.51396 363.583 6.38055L292.224 61.2377C284.967 66.7959 276.5 69.9375 267.308 70.4208L24.2024 82.5039C9.44666 83.2289 -1.43865 85.8871 0.496522 100.628L6.54393 158.386C7.99531 169.985 17.1874 179.168 28.7984 180.618L82.7413 187.627H723.283L734.894 186.902L739.732 186.66L832.62 180.135C851.246 178.443 865.035 162.01 863.099 143.644ZM463.003 71.8708H304.56L373.259 18.9469C375.194 17.497 377.613 16.5303 380.274 16.5303H466.873L463.003 71.8708Z" fill="#F9B233"/>
</svg>
