<svg width="143" height="35" viewBox="0 0 143 35" fill="none" xmlns="http://www.w3.org/2000/svg">
<path d="M158.169 28.0817C156.475 28.0817 154.782 28.8067 153.573 29.7733C151.637 25.6651 145.59 22.7651 138.575 22.7651C134.221 22.7651 130.109 23.9734 127.206 25.6651C125.271 22.0401 121.642 19.6235 117.288 19.6235C114.143 19.6235 111.482 20.8318 109.547 22.7651C105.435 16.7236 97.2106 12.6153 87.5348 12.6153C80.7616 12.6153 74.7141 14.5486 70.36 17.9319C66.7315 8.02377 57.0557 0.773926 45.9285 0.773926C34.8012 0.773926 25.1252 7.78211 21.4968 17.6902C19.5616 16.7236 17.6264 16.2403 15.4494 16.2403C7.46676 16.2403 0.935547 22.7651 0.935547 30.7399C0.935547 32.1899 1.17747 33.3982 1.41937 34.6065H21.0131H29.4795H63.8287H71.0856H107.128H111.966H123.819H128.415H152.121H154.54H165.667V34.3649C164.942 30.9816 162.039 28.0817 158.169 28.0817Z" fill="#F4EBFF"/>
</svg>
